<svg xmlns="http://www.w3.org/2000/svg" viewBox="0 0 64 64" width="64" height="64">
  <defs>
    <radialGradient id="g" cx="50%" cy="38%" r="70%">
      <stop offset="0%" stop-color="#ffd27a" />
      <stop offset="45%" stop-color="#f5a623" />
      <stop offset="100%" stop-color="#0b0e14" />
    </radialGradient>
  </defs>
  <circle cx="32" cy="32" r="31" fill="url(#g)" />
  <circle cx="32" cy="32" r="31" fill="none" stroke="#0b0e14" stroke-opacity="0.5" stroke-width="2" />
  <g fill="#ffffff">
    <path d="M32 11 C 40 22, 39 31, 32 34 C 25 31, 24 22, 32 11 Z" />
    <path d="M32 11 C 40 22, 39 31, 32 34 C 25 31, 24 22, 32 11 Z" transform="rotate(120 32 32)" />
    <path d="M32 11 C 40 22, 39 31, 32 34 C 25 31, 24 22, 32 11 Z" transform="rotate(240 32 32)" />
  </g>
  <circle cx="32" cy="32" r="4.2" fill="#0b0e14" />
</svg>
